<?xml version="1.0" encoding="utf-8"?>
<!-- Generator: Adobe Illustrator 17.0.0, SVG Export Plug-In . SVG Version: 6.00 Build 0)  -->
<!DOCTYPE svg PUBLIC "-//W3C//DTD SVG 1.1//EN" "http://www.w3.org/Graphics/SVG/1.1/DTD/svg11.dtd">
<svg version="1.1" xmlns="http://www.w3.org/2000/svg" xmlns:xlink="http://www.w3.org/1999/xlink" x="0px" y="0px"
	 width="230.21px" height="486px" viewBox="0 0 230.21 486" enable-background="new 0 0 230.21 486" xml:space="preserve">
<g id="Layer_1">
	<g>
		<defs>
			<rect id="SVGID_1_" x="-280.895" y="-90" width="792" height="612"/>
		</defs>
		<clipPath id="SVGID_2_">
			<use xlink:href="#SVGID_1_"  overflow="visible"/>
		</clipPath>
		<path clip-path="url(#SVGID_2_)" fill="#292929" d="M0,469.285V19.551C0,10.32,7.484,2.836,16.715,2.836h196.78
			c9.231,0,16.715,7.484,16.715,16.715v449.734c0,9.232-7.484,16.715-16.715,16.715H16.715C7.484,486,0,478.517,0,469.285"/>
		<path clip-path="url(#SVGID_2_)" fill="#404040" d="M115.118,473.304c10.061,0,18.198-8.176,18.198-18.229
			c0-10.045-8.137-18.212-18.198-18.212c-10.071,0-18.225,8.167-18.225,18.212C96.893,465.128,105.047,473.304,115.118,473.304"/>
		<path clip-path="url(#SVGID_2_)" fill="none" stroke="#F2F2F2" stroke-width="0.5" stroke-miterlimit="10" d="M115.118,473.304
			c10.061,0,18.198-8.176,18.198-18.229c0-10.045-8.137-18.212-18.198-18.212c-10.071,0-18.225,8.167-18.225,18.212
			C96.893,465.128,105.047,473.304,115.118,473.304z"/>
		<path clip-path="url(#SVGID_2_)" fill="#F2F2F2" d="M131.011,48.377c1.952,0,3.534-1.448,3.534-3.257
			c0-1.802-1.582-3.25-3.534-3.25h-31.79c-1.961,0-3.534,1.448-3.534,3.25c0,1.809,1.573,3.257,3.534,3.257H131.011z"/>
		<path clip-path="url(#SVGID_2_)" fill="#F2F2F2" d="M115.117,31.295c2.461,0,4.461-1.991,4.461-4.482c0-2.465-2-4.456-4.461-4.456
			c-2.473,0-4.477,1.991-4.477,4.456C110.64,29.304,112.644,31.295,115.117,31.295"/>
	</g>
	<rect x="151.205" y="0" fill="#292929" width="36.772" height="5.654"/>
</g>
<g id="Layer_2">
	<rect x="16.686" y="71.14" fill="#212121" width="196.845" height="348.9"/>
</g>
<g id="Layer_4">
	<polygon fill="#171717" points="16.686,327 213.531,167.573 213.531,420.04 16.686,420.04 	"/>
	<polygon points="213.531,374.333 80.06,241.045 85.438,191.333 132.81,154.795 213.531,235.516 	"/>
	<g>
		<linearGradient id="SVGID_3_" gradientUnits="userSpaceOnUse" x1="76.3164" y1="192.5645" x2="159.2208" y2="208.9144">
			<stop  offset="0" style="stop-color:#01D6E3"/>
			<stop  offset="0.1556" style="stop-color:#05D1E6"/>
			<stop  offset="0.3459" style="stop-color:#12C2EF"/>
			<stop  offset="0.5537" style="stop-color:#27A9FD"/>
			<stop  offset="0.5762" style="stop-color:#2AA6FF"/>
			<stop  offset="0.7699" style="stop-color:#2A96FF"/>
			<stop  offset="0.9985" style="stop-color:#2A88FF"/>
		</linearGradient>
		<path fill="url(#SVGID_3_)" d="M106.576,224.457c1.063-9.209-3.236-22.223-19.271-26.082c12.619-8.369,46.995-8.682,70.258,18.942
			c-0.522-25.18-17.423-69.745-42.672-69.745c-23.574,0-41.514,43.241-42.685,70.929c-0.539,12.735,6.635,23.061,16.792,29.575
			C98.091,242.874,105.416,234.512,106.576,224.457z"/>
	</g>
	<g>
		<linearGradient id="SVGID_4_" gradientUnits="userSpaceOnUse" x1="97.1516" y1="223.8101" x2="154.4189" y2="235.104">
			<stop  offset="0" style="stop-color:#01D6E3"/>
			<stop  offset="0.1556" style="stop-color:#05D1E6"/>
			<stop  offset="0.3459" style="stop-color:#12C2EF"/>
			<stop  offset="0.5537" style="stop-color:#27A9FD"/>
			<stop  offset="0.5762" style="stop-color:#2AA6FF"/>
			<stop  offset="0.7699" style="stop-color:#2A96FF"/>
			<stop  offset="0.9985" style="stop-color:#2A88FF"/>
		</linearGradient>
		<path fill="url(#SVGID_4_)" d="M111.413,197.55c11.907,24.389-5.063,43.542-19.425,52.444c6.998,3.966,15.189,6.167,23.129,6.167
			c19.277,0,40.23-12.723,41.594-34.18C148.823,211.842,132.884,198.61,111.413,197.55z"/>
	</g>
	<g>
		<g>
			<path fill="#01DAE7" d="M51.286,278.523c-0.231-0.446-0.581-0.812-1.051-1.097c-0.47-0.285-1.005-0.427-1.605-0.427
				c-0.277,0-0.554,0.031-0.831,0.093c-0.277,0.061-0.524,0.161-0.739,0.3c-0.216,0.138-0.389,0.316-0.52,0.531
				c-0.131,0.216-0.196,0.47-0.196,0.762c0,0.508,0.208,0.897,0.624,1.166c0.416,0.269,1.07,0.497,1.963,0.681
				c1.278,0.262,2.221,0.643,2.829,1.143c0.608,0.5,0.912,1.174,0.912,2.021c0,0.616-0.119,1.135-0.358,1.559
				c-0.239,0.423-0.551,0.77-0.936,1.039c-0.385,0.27-0.82,0.462-1.305,0.577c-0.485,0.115-0.974,0.173-1.467,0.173
				c-0.816,0-1.609-0.17-2.379-0.508c-0.77-0.338-1.401-0.869-1.894-1.594l1.247-0.924c0.277,0.478,0.685,0.878,1.224,1.201
				c0.539,0.323,1.132,0.485,1.778,0.485c0.338,0,0.662-0.031,0.97-0.093c0.308-0.061,0.577-0.169,0.808-0.323
				c0.231-0.154,0.416-0.35,0.554-0.589c0.138-0.238,0.208-0.535,0.208-0.889c0-0.57-0.273-0.997-0.82-1.282
				c-0.547-0.285-1.336-0.551-2.367-0.797c-0.323-0.077-0.666-0.173-1.028-0.289c-0.362-0.115-0.697-0.285-1.004-0.508
				c-0.308-0.223-0.562-0.504-0.762-0.843c-0.2-0.339-0.3-0.762-0.3-1.27c0-0.554,0.107-1.028,0.323-1.42
				c0.215-0.393,0.504-0.716,0.866-0.97c0.362-0.254,0.774-0.443,1.236-0.566c0.462-0.123,0.939-0.185,1.432-0.185
				c0.754,0,1.486,0.17,2.194,0.508c0.708,0.339,1.239,0.817,1.593,1.432L51.286,278.523z"/>
			<path fill="#01DAE7" d="M63.145,286.768c-0.031-0.292-0.054-0.616-0.07-0.97c-0.016-0.354-0.023-0.647-0.023-0.878h-0.046
				c-0.308,0.631-0.808,1.143-1.501,1.536c-0.693,0.393-1.424,0.589-2.194,0.589c-1.37,0-2.398-0.408-3.083-1.224
				c-0.686-0.816-1.028-1.894-1.028-3.233v-6.628h1.57v5.981c0,0.57,0.046,1.085,0.139,1.547c0.092,0.462,0.25,0.859,0.473,1.189
				c0.223,0.331,0.523,0.589,0.901,0.774c0.377,0.185,0.85,0.277,1.42,0.277c0.416,0,0.82-0.084,1.212-0.254
				c0.393-0.169,0.743-0.427,1.051-0.774c0.308-0.346,0.554-0.785,0.739-1.316c0.185-0.531,0.277-1.158,0.277-1.882v-5.543h1.57
				v8.429c0,0.292,0.008,0.67,0.023,1.132c0.015,0.462,0.038,0.878,0.069,1.247H63.145z"/>
			<path fill="#01DAE7" d="M68.191,277.207c-0.016-0.462-0.038-0.878-0.069-1.247h1.501c0.031,0.292,0.054,0.616,0.069,0.97
				c0.015,0.354,0.023,0.647,0.023,0.878h0.046c0.308-0.631,0.77-1.143,1.385-1.536c0.616-0.392,1.308-0.589,2.078-0.589
				c0.2,0,0.381,0.008,0.543,0.023c0.162,0.016,0.327,0.046,0.497,0.093l-0.208,1.501c-0.092-0.031-0.246-0.061-0.462-0.092
				c-0.216-0.031-0.431-0.046-0.647-0.046c-0.416,0-0.816,0.077-1.201,0.231s-0.72,0.395-1.004,0.726
				c-0.285,0.33-0.516,0.752-0.693,1.267c-0.177,0.515-0.266,1.133-0.266,1.855v5.529h-1.571v-8.429
				C68.214,278.046,68.206,277.669,68.191,277.207z"/>
			<path fill="#01DAE7" d="M83.165,277.276h-2.54v9.492h-1.571v-9.492h-2.263v-1.316h2.263v-2.956c0-1.231,0.3-2.201,0.901-2.91
				c0.601-0.708,1.524-1.062,2.771-1.062c0.2,0,0.416,0.012,0.647,0.035c0.231,0.023,0.446,0.066,0.647,0.127l-0.277,1.385
				c-0.17-0.046-0.339-0.084-0.508-0.116c-0.17-0.031-0.362-0.046-0.577-0.046c-0.416,0-0.758,0.07-1.028,0.208
				s-0.477,0.335-0.623,0.589c-0.147,0.254-0.247,0.551-0.3,0.889c-0.054,0.339-0.081,0.701-0.081,1.086v2.771h2.54V277.276z"/>
		</g>
	</g>
	<g>
		<path fill="#01DAE7" d="M97.754,271.525c0,0.323-0.115,0.589-0.346,0.797c-0.231,0.208-0.485,0.312-0.762,0.312
			c-0.277,0-0.531-0.104-0.762-0.312c-0.231-0.208-0.346-0.474-0.346-0.797c0-0.324,0.115-0.589,0.346-0.797
			c0.231-0.208,0.485-0.312,0.762-0.312c0.277,0,0.531,0.104,0.762,0.312C97.639,270.936,97.754,271.202,97.754,271.525z
			 M97.431,286.491h-1.57v-10.808h1.57V286.491z"/>
		<path fill="#01DAE7" d="M102.523,275.683c0.031,0.292,0.054,0.616,0.069,0.97c0.015,0.354,0.023,0.647,0.023,0.878h0.046
			c0.308-0.631,0.808-1.143,1.501-1.536c0.693-0.392,1.424-0.589,2.194-0.589c1.37,0,2.398,0.408,3.083,1.224
			c0.685,0.816,1.028,1.894,1.028,3.233v6.628h-1.571v-5.982c0-0.569-0.046-1.085-0.138-1.547s-0.25-0.858-0.474-1.189
			s-0.523-0.589-0.901-0.774c-0.377-0.185-0.851-0.277-1.42-0.277c-0.416,0-0.82,0.085-1.212,0.254
			c-0.393,0.17-0.743,0.427-1.051,0.774s-0.554,0.785-0.739,1.316c-0.185,0.531-0.277,1.159-0.277,1.882v5.543h-1.571v-8.429
			c0-0.292-0.008-0.67-0.023-1.132c-0.016-0.462-0.038-0.878-0.069-1.247H102.523z"/>
		<path fill="#01DAE7" d="M121.819,278.153c-0.262-0.416-0.643-0.758-1.143-1.027c-0.5-0.269-1.043-0.404-1.628-0.404
			c-0.631,0-1.201,0.112-1.709,0.335c-0.508,0.224-0.943,0.531-1.305,0.924c-0.362,0.393-0.639,0.855-0.831,1.386
			c-0.193,0.531-0.289,1.105-0.289,1.72c0,0.616,0.096,1.186,0.289,1.709c0.192,0.524,0.465,0.981,0.82,1.374
			c0.354,0.393,0.785,0.701,1.293,0.924c0.508,0.223,1.077,0.335,1.709,0.335c0.693,0,1.278-0.131,1.755-0.393
			c0.477-0.261,0.869-0.6,1.178-1.016l1.178,0.878c-0.462,0.57-1.028,1.024-1.698,1.363c-0.67,0.339-1.474,0.508-2.413,0.508
			c-0.878,0-1.671-0.143-2.379-0.427c-0.708-0.285-1.313-0.681-1.813-1.189c-0.5-0.508-0.889-1.109-1.166-1.801
			c-0.277-0.693-0.416-1.447-0.416-2.263c0-0.816,0.138-1.57,0.416-2.263c0.277-0.693,0.666-1.293,1.166-1.802
			c0.5-0.508,1.105-0.904,1.813-1.189c0.708-0.285,1.501-0.427,2.379-0.427c0.724,0,1.459,0.158,2.206,0.473
			c0.747,0.316,1.351,0.782,1.813,1.398L121.819,278.153z"/>
		<path fill="#01DAE7" d="M132.939,286.491c-0.031-0.292-0.054-0.616-0.07-0.97c-0.016-0.354-0.023-0.647-0.023-0.878H132.8
			c-0.308,0.631-0.808,1.143-1.501,1.536c-0.693,0.393-1.424,0.589-2.194,0.589c-1.37,0-2.398-0.408-3.083-1.224
			c-0.686-0.816-1.028-1.894-1.028-3.233v-6.628h1.57v5.981c0,0.57,0.046,1.085,0.139,1.547c0.092,0.462,0.25,0.859,0.473,1.189
			c0.223,0.331,0.523,0.589,0.901,0.774c0.377,0.185,0.85,0.277,1.42,0.277c0.416,0,0.82-0.084,1.212-0.254
			c0.393-0.169,0.743-0.427,1.051-0.774c0.308-0.346,0.554-0.785,0.739-1.316c0.185-0.531,0.277-1.158,0.277-1.882v-5.543h1.57
			v8.429c0,0.292,0.008,0.67,0.023,1.132c0.015,0.462,0.038,0.878,0.069,1.247H132.939z"/>
		<path fill="#01DAE7" d="M139.625,284.666v1.824h-1.571v-17.459h1.571v8.522h0.046c0.462-0.708,1.062-1.243,1.801-1.605
			c0.739-0.362,1.501-0.543,2.286-0.543c0.847,0,1.613,0.147,2.298,0.439c0.685,0.293,1.27,0.693,1.755,1.201
			c0.485,0.508,0.862,1.108,1.132,1.801s0.404,1.44,0.404,2.24c0,0.801-0.135,1.548-0.404,2.24
			c-0.269,0.693-0.647,1.293-1.132,1.802c-0.485,0.508-1.07,0.909-1.755,1.201c-0.685,0.292-1.451,0.439-2.298,0.439
			c-0.785,0-1.547-0.177-2.286-0.531c-0.739-0.354-1.34-0.878-1.801-1.571H139.625z M147.685,281.086c0-0.6-0.093-1.166-0.277-1.697
			c-0.185-0.531-0.45-0.993-0.797-1.386c-0.346-0.392-0.774-0.704-1.282-0.935c-0.508-0.231-1.086-0.346-1.732-0.346
			c-0.6,0-1.154,0.112-1.663,0.335c-0.508,0.224-0.947,0.531-1.316,0.924c-0.37,0.393-0.658,0.855-0.866,1.386
			c-0.208,0.531-0.311,1.105-0.311,1.72c0,0.616,0.104,1.189,0.311,1.721c0.208,0.531,0.497,0.99,0.866,1.374
			c0.369,0.385,0.808,0.689,1.316,0.912c0.508,0.223,1.062,0.335,1.663,0.335c0.647,0,1.224-0.112,1.732-0.335
			c0.508-0.223,0.935-0.531,1.282-0.924s0.612-0.854,0.797-1.385C147.593,282.253,147.685,281.687,147.685,281.086z"/>
		<path fill="#01DAE7" d="M159.036,279.496c0-0.932-0.247-1.628-0.739-2.086c-0.493-0.458-1.209-0.688-2.148-0.688
			c-0.647,0-1.247,0.115-1.802,0.346c-0.554,0.231-1.024,0.539-1.409,0.924l-0.877-1.039c0.446-0.446,1.035-0.816,1.767-1.109
			c0.731-0.292,1.559-0.439,2.483-0.439c0.585,0,1.132,0.081,1.639,0.242c0.508,0.162,0.955,0.404,1.34,0.728
			c0.385,0.324,0.685,0.731,0.901,1.224c0.215,0.493,0.323,1.07,0.323,1.732v4.735c0,0.416,0.015,0.847,0.046,1.293
			c0.031,0.447,0.077,0.824,0.138,1.132h-1.409c-0.046-0.262-0.085-0.546-0.115-0.855c-0.031-0.308-0.046-0.608-0.046-0.901h-0.046
			c-0.493,0.724-1.051,1.244-1.674,1.559c-0.624,0.315-1.374,0.474-2.252,0.474c-0.416,0-0.843-0.058-1.282-0.174
			c-0.439-0.116-0.84-0.305-1.201-0.567c-0.362-0.263-0.662-0.603-0.901-1.02c-0.239-0.417-0.358-0.927-0.358-1.529
			c0-0.834,0.211-1.495,0.635-1.981c0.423-0.486,0.989-0.849,1.697-1.089c0.708-0.24,1.52-0.394,2.437-0.464
			c0.916-0.069,1.867-0.104,2.852-0.104V279.496z M158.574,281.086c-0.647,0-1.297,0.027-1.952,0.081
			c-0.654,0.054-1.247,0.162-1.778,0.324c-0.531,0.161-0.966,0.397-1.305,0.704c-0.339,0.308-0.508,0.716-0.508,1.224
			c0,0.385,0.073,0.708,0.219,0.97c0.146,0.262,0.343,0.474,0.589,0.635c0.246,0.161,0.52,0.277,0.82,0.346
			c0.3,0.07,0.604,0.104,0.912,0.104c0.555,0,1.047-0.096,1.478-0.289c0.431-0.192,0.793-0.454,1.086-0.785
			c0.292-0.331,0.516-0.712,0.67-1.143c0.154-0.431,0.231-0.885,0.231-1.363v-0.808H158.574z"/>
		<path fill="#01DAE7" d="M168.701,276.999h-3.049v6.305c0,0.401,0.038,0.731,0.115,0.993c0.077,0.262,0.189,0.466,0.335,0.612
			c0.146,0.146,0.32,0.246,0.52,0.3c0.2,0.054,0.416,0.081,0.647,0.081c0.215,0,0.442-0.031,0.681-0.093
			c0.238-0.061,0.465-0.146,0.681-0.254l0.069,1.363c-0.277,0.108-0.566,0.188-0.866,0.242c-0.3,0.054-0.628,0.081-0.981,0.081
			c-0.293,0-0.601-0.039-0.924-0.115c-0.324-0.077-0.624-0.223-0.901-0.439c-0.277-0.215-0.505-0.508-0.681-0.878
			c-0.177-0.369-0.266-0.854-0.266-1.455v-6.743h-2.24v-1.316h2.24v-3.049h1.57v3.049h3.049V276.999z"/>
		<path fill="#01DAE7" d="M181.888,281.086c0,0.816-0.143,1.571-0.427,2.263c-0.285,0.693-0.681,1.293-1.189,1.801
			c-0.508,0.508-1.116,0.905-1.824,1.189c-0.708,0.285-1.486,0.427-2.332,0.427c-0.832,0-1.602-0.143-2.31-0.427
			c-0.708-0.285-1.316-0.681-1.824-1.189c-0.508-0.508-0.904-1.109-1.189-1.801c-0.285-0.693-0.427-1.447-0.427-2.263
			c0-0.816,0.142-1.57,0.427-2.263c0.285-0.693,0.681-1.293,1.189-1.802c0.508-0.508,1.116-0.904,1.824-1.189
			c0.708-0.285,1.478-0.427,2.31-0.427c0.847,0,1.624,0.142,2.332,0.427c0.708,0.285,1.316,0.681,1.824,1.189
			c0.508,0.508,0.904,1.109,1.189,1.802C181.745,279.516,181.888,280.271,181.888,281.086z M180.225,281.086
			c0-0.6-0.096-1.166-0.289-1.697c-0.193-0.531-0.466-0.993-0.82-1.386c-0.355-0.392-0.785-0.704-1.293-0.935
			c-0.508-0.231-1.078-0.346-1.709-0.346c-0.632,0-1.198,0.115-1.698,0.346c-0.5,0.231-0.928,0.543-1.282,0.935
			c-0.354,0.393-0.628,0.855-0.82,1.386c-0.193,0.531-0.289,1.097-0.289,1.697s0.096,1.167,0.289,1.698
			c0.192,0.531,0.465,0.993,0.82,1.385c0.354,0.393,0.781,0.701,1.282,0.924c0.5,0.223,1.066,0.335,1.698,0.335
			c0.631,0,1.201-0.112,1.709-0.335c0.508-0.223,0.939-0.531,1.293-0.924c0.354-0.393,0.627-0.854,0.82-1.385
			C180.128,282.253,180.225,281.687,180.225,281.086z"/>
		<path fill="#01DAE7" d="M184.244,276.93c-0.016-0.462-0.038-0.878-0.069-1.247h1.501c0.031,0.292,0.054,0.616,0.069,0.97
			c0.015,0.354,0.023,0.647,0.023,0.878h0.046c0.308-0.631,0.77-1.143,1.385-1.536c0.616-0.392,1.308-0.589,2.078-0.589
			c0.2,0,0.381,0.008,0.543,0.023c0.162,0.016,0.327,0.046,0.497,0.093l-0.208,1.501c-0.092-0.031-0.246-0.061-0.462-0.092
			c-0.216-0.031-0.431-0.046-0.647-0.046c-0.416,0-0.816,0.077-1.201,0.231c-0.385,0.154-0.72,0.395-1.004,0.726
			c-0.285,0.33-0.516,0.752-0.693,1.267c-0.177,0.515-0.266,1.133-0.266,1.855v5.529h-1.571v-8.429
			C184.266,277.769,184.259,277.392,184.244,276.93z"/>
	</g>
</g>
<g id="Layer_5">
	<rect x="88.45" y="375.39" fill="none" width="52.898" height="12.277"/>
	<text transform="matrix(0.99 0 0 1.07 94.0942 382.5294)" fill="#2AA6FF" font-family="'HelveticaNeue'" font-size="10">Join Now</text>
	<linearGradient id="SVGID_5_" gradientUnits="userSpaceOnUse" x1="90.4498" y1="387.6667" x2="139.1417" y2="387.6667">
		<stop  offset="0" style="stop-color:#01D6E3"/>
		<stop  offset="0.1556" style="stop-color:#05D1E6"/>
		<stop  offset="0.3459" style="stop-color:#12C2EF"/>
		<stop  offset="0.5537" style="stop-color:#27A9FD"/>
		<stop  offset="0.5762" style="stop-color:#2AA6FF"/>
		<stop  offset="0.7699" style="stop-color:#2A96FF"/>
		<stop  offset="0.9985" style="stop-color:#2A88FF"/>
	</linearGradient>
	
		<line fill="none" stroke="url(#SVGID_5_)" stroke-width="0.5" stroke-miterlimit="10" x1="90.45" y1="387.667" x2="139.142" y2="387.667"/>
</g>
<g id="top">
	<g>
		<g>
			<path fill="#FFFFFF" d="M48.683,78.081c1.204,0,2.301,0.449,3.142,1.186l0.584-0.654c-0.997-0.876-2.298-1.489-3.727-1.489
				c-1.427,0-2.726,0.611-3.722,1.486l0.583,0.654C46.385,78.527,47.481,78.081,48.683,78.081z"/>
			<path fill="#FFFFFF" d="M48.683,79.967c0.721,0,1.381,0.265,1.889,0.703l0.618-0.692c-0.672-0.586-1.547-0.968-2.507-0.968
				c-0.958,0-1.832,0.381-2.505,0.965l0.617,0.692C47.304,80.231,47.963,79.967,48.683,79.967z"/>
			<path fill="#FFFFFF" d="M49.954,81.362c-0.344-0.29-0.787-0.49-1.271-0.49s-0.926,0.2-1.27,0.489l1.27,1.425L49.954,81.362z"/>
		</g>
		<path fill-rule="evenodd" clip-rule="evenodd" fill="#FFFFFF" d="M23.393,78.364c0.943,0,1.707,0.764,1.707,1.707
			s-0.764,1.707-1.707,1.707c-0.943,0-1.707-0.764-1.707-1.707S22.45,78.364,23.393,78.364z"/>
		<path fill-rule="evenodd" clip-rule="evenodd" fill="#FFFFFF" d="M27.738,78.364c0.943,0,1.707,0.764,1.707,1.707
			s-0.764,1.707-1.707,1.707c-0.943,0-1.707-0.764-1.707-1.707S26.795,78.364,27.738,78.364z"/>
		<path fill-rule="evenodd" clip-rule="evenodd" fill="#FFFFFF" d="M32.082,78.364c0.943,0,1.707,0.764,1.707,1.707
			s-0.764,1.707-1.707,1.707c-0.943,0-1.707-0.764-1.707-1.707S31.14,78.364,32.082,78.364z"/>
		<path fill="#FFFFFF" d="M36.427,78.364c-0.943,0-1.707,0.764-1.707,1.707c0,0.943,0.764,1.707,1.707,1.707
			c0.943,0,1.707-0.764,1.707-1.707C38.134,79.129,37.37,78.364,36.427,78.364L36.427,78.364z"/>
		<path fill="#FFFFFF" d="M40.772,78.364c-0.943,0-1.707,0.764-1.707,1.707c0,0.943,0.764,1.707,1.707,1.707
			c0.943,0,1.707-0.764,1.707-1.707C42.479,79.129,41.715,78.364,40.772,78.364L40.772,78.364z"/>
	</g>
	<g>
		<path fill-rule="evenodd" clip-rule="evenodd" fill="#FFFFFF" d="M206.926,78.985c0.6,0,0.931,0.486,0.931,1.086
			c0,0.6-0.331,1.086-0.931,1.086V78.985z"/>
		<path fill="#FFFFFF" d="M205.685,77.433c0.342,0,0.621,0.278,0.621,0.621v4.034c0,0.342-0.278,0.621-0.621,0.621h-12.103
			c-0.342,0-0.621-0.278-0.621-0.621v-4.034c0-0.342,0.278-0.621,0.621-0.621H205.685 M205.685,77.123h-12.103
			c-0.514,0-0.931,0.417-0.931,0.931v4.034c0,0.514,0.417,0.931,0.931,0.931h12.103c0.514,0,0.931-0.417,0.931-0.931v-4.034
			C206.616,77.54,206.199,77.123,205.685,77.123L205.685,77.123z"/>
		<path fill-rule="evenodd" clip-rule="evenodd" fill="#FFFFFF" d="M193.892,77.744h11.483c0.343,0,0.621,0.278,0.621,0.621v3.414
			c0,0.343-0.278,0.621-0.621,0.621h-11.483c-0.343,0-0.621-0.278-0.621-0.621v-3.414C193.271,78.021,193.549,77.744,193.892,77.744
			z"/>
		<text transform="matrix(1 0 0 1 170.7085 82.5752)" fill="#FFFFFF" font-family="'HelveticaNeue'" font-size="7.4482">100%</text>
	</g>
	<text transform="matrix(1 0 0 1 100.7501 82.5752)" fill="#FFFFFF" font-family="'HelveticaNeue-Medium'" font-size="7.4482">8:08 AM</text>
</g>
</svg>
