<?xml version="1.0" encoding="utf-8"?>
<!-- Generator: Adobe Illustrator 17.0.0, SVG Export Plug-In . SVG Version: 6.00 Build 0)  -->
<!DOCTYPE svg PUBLIC "-//W3C//DTD SVG 1.1//EN" "http://www.w3.org/Graphics/SVG/1.1/DTD/svg11.dtd">
<svg version="1.1" id="Layer_1" xmlns="http://www.w3.org/2000/svg" xmlns:xlink="http://www.w3.org/1999/xlink" x="0px" y="0px"
	 width="100px" height="100px" viewBox="0 0 100 100" enable-background="new 0 0 100 100" xml:space="preserve">
<path fill="#FFFFFF" d="M26.41,36.184c0,0,1.238-13.684,16.125-14.164c13.509-0.435,16.778,8.716,16.778,8.716
	s9.806-4.793,16.778,1.526C83.065,38.58,81.104,44.9,81.104,44.9s10.024-1.743,15.253,5.23c5.229,6.972-0.654,19.174-8.716,18.957
	c0,0-3.268,6.973-12.856,3.704c0,0-4.14,10.895-17.432,8.934c-13.292-1.961-13.292-8.716-13.292-8.716s-4.794,7.409-13.51,5.883
	c-8.716-1.526-8.934-9.152-8.934-9.152S8.108,73.88,2.224,63.203c-5.428-9.851,2.833-22.007,11.549-20.264
	C13.773,42.939,15.515,33.569,26.41,36.184z"/>
</svg>
