<?xml version="1.0" encoding="utf-8"?>
<!-- Generator: Adobe Illustrator 17.0.0, SVG Export Plug-In . SVG Version: 6.00 Build 0)  -->
<!DOCTYPE svg PUBLIC "-//W3C//DTD SVG 1.1//EN" "http://www.w3.org/Graphics/SVG/1.1/DTD/svg11.dtd">
<svg version="1.1" id="Layer_2" xmlns="http://www.w3.org/2000/svg" xmlns:xlink="http://www.w3.org/1999/xlink" x="0px" y="0px"
	 width="387.333px" height="262px" viewBox="0 0 387.333 262" enable-background="new 0 0 387.333 262" xml:space="preserve">
<polygon fill="#FF505C" points="161.215,3.701 232.839,96.979 250.328,145.284 257.824,145.284 268.651,157.776 339.442,47.842 
	377.181,57.697 347.023,62.87 306.129,157.776 381.917,116.967 321.12,170.269 313.624,185.26 298.633,194.421 276.146,223.57 
	222.845,234.397 203.69,257.833 4.901,250.767 187.239,217.702 166.294,180.567 150.486,122.986 "/>
<g id="Layer_4">
	<polygon fill="#EF3C3C" points="161.215,3.701 232.839,96.979 251.994,146.949 214.239,155.833 	"/>
	<polygon fill="#EF3C3C" points="278.218,167.896 283.087,173.045 306.129,157.776 	"/>
	<polygon fill="#EF3C3C" points="222.845,234.397 276.146,223.57 298.633,194.421 313.624,185.26 321.12,170.269 381.917,116.967 	
		"/>
	<polygon fill="#EF3C3C" points="345.827,55.337 377.181,57.697 347.023,62.87 306.129,157.776 289.749,163.715 	"/>
	<polygon fill="#D33737" points="199.37,212.951 201.138,214.105 203.69,257.833 	"/>
	<polygon fill="#D33737" points="166.514,181.367 197.027,178.597 200.629,216.585 181.129,218.819 	"/>
</g>
<g id="Layer_5">
	<polyline fill="#FF5F6F" points="257.824,145.284 214.239,155.833 166.514,181.367 197.027,178.597 202.028,231.343 
		283.087,173.045 	"/>
	<polygon fill="#D33737" points="166.514,181.367 197.027,178.597 224.8,160.691 257.824,145.284 214.239,155.833 	"/>
	<polygon fill="#D33737" points="202.028,231.343 283.087,173.045 246.511,196.92 	"/>
	<polygon fill="#EF3C3C" points="166.514,181.367 197.027,178.597 224.8,160.691 257.824,145.284 214.516,157.776 	"/>
</g>
</svg>
