<?xml version="1.0" encoding="utf-8"?>
<!-- Generator: Adobe Illustrator 17.0.0, SVG Export Plug-In . SVG Version: 6.00 Build 0)  -->
<!DOCTYPE svg PUBLIC "-//W3C//DTD SVG 1.1//EN" "http://www.w3.org/Graphics/SVG/1.1/DTD/svg11.dtd">
<svg version="1.1" id="Layer_7" xmlns="http://www.w3.org/2000/svg" xmlns:xlink="http://www.w3.org/1999/xlink" x="0px" y="0px"
	 width="341.5px" height="361.618px" viewBox="0 0 341.5 361.618" enable-background="new 0 0 341.5 361.618" xml:space="preserve">
<g id="body">
	<polygon fill="#FEDCB8" stroke="#000000" stroke-width="5" stroke-miterlimit="10" points="129,292.118 99,365.118 133,365.118 
		151.99,292.118 	"/>
	<polygon fill="#FEDCB8" stroke="#000000" stroke-width="5" stroke-miterlimit="10" points="200.99,292.118 230.99,365.118 
		196.99,365.118 178,292.118 	"/>
	<polygon fill="#FFFFFF" stroke="#000000" stroke-width="5" stroke-linecap="round" stroke-miterlimit="10" points="141,300.118 
		126,371.118 205.959,371.118 192,300.118 	"/>
	<g id="Layer_22">
		
			<rect x="157.845" y="300.485" fill="#FFFFFF" stroke="#000000" stroke-width="5" stroke-linecap="round" stroke-miterlimit="10" width="20.082" height="70.633"/>
	</g>
	<polygon fill="#FFFFFF" stroke="#000000" stroke-width="5" stroke-linecap="round" stroke-miterlimit="10" points="136,294.118 
		130,301.118 152,322.118 167.979,303.118 154,287.118 	"/>
	<polygon fill="#FFFFFF" stroke="#000000" stroke-width="5" stroke-linecap="round" stroke-miterlimit="10" points="
		199.959,294.118 205.959,301.118 183.959,322.118 167.979,303.118 181.959,287.118 	"/>
</g>
<g id="Layer_3">
	<path fill="#FEDBBD" stroke="#000000" stroke-width="5" stroke-miterlimit="10" d="M246.948,216.737
		c0,45.147-45.376,82.048-78.968,81.746c-27.928-0.251-78.968-36.599-78.968-81.746s35.355-81.746,78.968-81.746
		S246.948,171.59,246.948,216.737z"/>
</g>
<g id="Layer_14">
	<ellipse opacity="0.5" fill="#FD8570" cx="113.722" cy="247.115" rx="21.736" ry="17.664"/>
	<ellipse opacity="0.5" fill="#FD8570" cx="218.471" cy="247.115" rx="21.736" ry="17.664"/>
</g>
<g id="hair">
	<g id="Layer_2">
		<path fill="#BE7018" stroke="#000000" stroke-width="5" stroke-miterlimit="10" d="M167.979,58.626
			c-31.963-0.931-66.082,6.6-91.805,37.302c-24.603,29.365-23.161,62.758-33.333,91.19c-12.733,35.59-21.745,46.368-16.667,69.921
			c6.349,29.449,23.016,29.365,23.016,29.365s17.885,18.239,33.333,20.635c15.873,2.462,30.159-1.587,30.159-1.587
			s15.123,2.381,24.551-8.063c0,0-14.07-5.1-21.062-18.271c0,0,10.796-0.651,17.145-5.413c6.349-4.762-42.063,9.524-32.54-78.592
			c0,0,9.29-11.921,30.952-11.921c17.46,0,21.144-1.392,37.214,0c45.325,3.926,44.532-34.09,44.532-34.09
			c13.492,19.048,42.857,83.333-4.762,117.46c-9.826,7.042,70.635,26.19,80.159,23.81s47.619-32.54,4.762-103.254
			c-16.708-27.568-14.646-65.906-35.714-91.19C233.997,67.216,196.961,59.47,167.979,58.626z"/>
	</g>
	<g id="Layer_11">
		<g>
			<path d="M144.5,181.686c0,0,0.912-0.163,2.506-0.368c1.578-0.206,3.832-0.5,6.537-0.852c0.669-0.1,1.366-0.204,2.088-0.312
				c0.721-0.1,1.464-0.197,2.221-0.346c0.758-0.125,1.536-0.254,2.332-0.385c0.787-0.156,1.591-0.316,2.408-0.479
				c1.641-0.287,3.284-0.76,4.969-1.155c0.827-0.245,1.66-0.492,2.497-0.74c0.841-0.232,1.643-0.575,2.469-0.856
				c0.834-0.263,1.632-0.604,2.423-0.955c0.791-0.351,1.607-0.643,2.353-1.06c0.754-0.399,1.531-0.749,2.265-1.154
				c0.724-0.425,1.44-0.845,2.144-1.258c0.714-0.403,1.341-0.91,2.011-1.332c0.33-0.22,0.656-0.437,0.978-0.652
				c0.307-0.237,0.61-0.471,0.908-0.702c0.604-0.461,1.192-0.909,1.761-1.342c0.546-0.468,1.073-0.92,1.579-1.354
				c1.032-0.856,1.91-1.722,2.711-2.478c0.402-0.379,0.779-0.734,1.127-1.062c0.334-0.344,0.64-0.66,0.917-0.946
				c1.113-1.143,1.796-1.781,1.796-1.781s-0.391,0.831-1.159,2.257c-0.193,0.357-0.408,0.752-0.641,1.182
				c-0.248,0.421-0.553,0.85-0.861,1.324c-0.622,0.945-1.311,2.033-2.231,3.089c-0.445,0.545-0.908,1.113-1.387,1.7
				c-0.53,0.545-1.078,1.108-1.642,1.687c-0.284,0.289-0.571,0.585-0.875,0.869c-0.317,0.27-0.638,0.544-0.962,0.82
				c-0.656,0.545-1.306,1.135-2.032,1.649c-0.733,0.507-1.478,1.022-2.232,1.543c-0.768,0.501-1.593,0.931-2.408,1.392
				c-0.807,0.481-1.672,0.857-2.538,1.241c-0.862,0.393-1.731,0.779-2.633,1.074c-0.9,0.296-1.783,0.653-2.693,0.893
				c-0.91,0.237-1.816,0.473-2.715,0.708c-0.902,0.21-1.809,0.351-2.7,0.515c-0.889,0.178-1.773,0.291-2.646,0.373
				c-0.871,0.085-1.724,0.208-2.563,0.252c-0.838,0.036-1.657,0.071-2.455,0.105c-1.593,0.091-3.099-0.024-4.482-0.045
				c-1.384-0.03-2.655-0.184-3.773-0.277c-1.122-0.078-2.081-0.251-2.877-0.363C145.408,181.869,144.5,181.686,144.5,181.686z"/>
		</g>
		<g>
			<path d="M41.952,249.421c0,0,0.279,0.926,0.688,2.557c0.391,1.639,1.004,3.948,1.655,6.704c0.376,1.371,0.727,2.867,1.157,4.424
				c0.441,1.555,0.851,3.205,1.39,4.868c0.274,0.83,0.479,1.698,0.79,2.537c0.29,0.845,0.584,1.701,0.88,2.563
				c0.295,0.861,0.676,1.692,0.993,2.553c0.309,0.866,0.692,1.698,1.085,2.525c0.705,1.697,1.612,3.278,2.45,4.865
				c0.477,0.757,0.941,1.515,1.392,2.271c0.46,0.75,1.01,1.421,1.485,2.134c0.251,0.346,0.476,0.71,0.743,1.033
				c0.268,0.324,0.533,0.645,0.795,0.963c0.535,0.627,1.001,1.299,1.562,1.854c1.087,1.142,2.081,2.28,3.135,3.195
				c0.514,0.477,1.006,0.933,1.474,1.368c0.494,0.41,0.962,0.799,1.402,1.164c0.44,0.37,0.862,0.705,1.238,1.039
				c0.391,0.312,0.766,0.576,1.098,0.828c1.334,0.998,2.089,1.618,2.089,1.618s-0.908-0.306-2.486-0.928
				c-0.392-0.16-0.835-0.323-1.304-0.528c-0.462-0.218-0.947-0.481-1.475-0.749c-0.529-0.273-1.091-0.564-1.684-0.87
				c-0.578-0.334-1.15-0.739-1.77-1.135c-0.602-0.418-1.287-0.789-1.897-1.299c-0.622-0.5-1.264-1.017-1.925-1.549
				c-0.681-0.516-1.25-1.182-1.906-1.792c-0.65-0.618-1.286-1.277-1.867-2.005c-0.591-0.718-1.229-1.427-1.781-2.209
				c-0.549-0.785-1.098-1.586-1.642-2.401c-0.997-1.676-1.989-3.405-2.77-5.219c-0.413-0.899-0.812-1.802-1.132-2.728
				c-0.337-0.919-0.686-1.834-0.972-2.754c-0.55-1.848-1.078-3.669-1.425-5.46c-0.421-1.778-0.656-3.52-0.906-5.164
				c-0.245-1.644-0.337-3.214-0.474-4.652c-0.121-1.441-0.141-2.773-0.182-3.944c-0.061-1.172-0.008-2.19-0.002-3.031
				C41.886,250.387,41.952,249.421,41.952,249.421z"/>
		</g>
		<g>
			<path d="M295.291,238.61c0,0,0.063,0.235,0.18,0.677c0.102,0.444,0.296,1.085,0.451,1.924c0.177,0.836,0.377,1.856,0.545,3.033
				c0.17,1.177,0.342,2.512,0.44,3.977c0.104,1.465,0.185,3.06,0.157,4.75c-0.016,1.691-0.123,3.477-0.322,5.321
				c-0.222,1.841-0.502,3.747-0.962,5.655c-0.449,1.909-0.999,3.835-1.718,5.711c-0.733,1.868-1.547,3.717-2.552,5.437
				c-0.993,1.724-2.101,3.352-3.324,4.808c-1.235,1.444-2.513,2.771-3.872,3.858c-0.651,0.573-1.361,1.041-2.011,1.525
				c-0.692,0.433-1.346,0.864-2.003,1.229c-1.305,0.745-2.562,1.3-3.69,1.726c-0.571,0.2-1.094,0.405-1.591,0.556
				c-0.502,0.133-0.963,0.256-1.379,0.367c-0.82,0.243-1.505,0.298-1.948,0.397c-0.45,0.073-0.69,0.112-0.69,0.112
				s0.215-0.115,0.619-0.331c0.4-0.219,1.003-0.493,1.729-0.919c0.363-0.207,0.764-0.436,1.201-0.686
				c0.423-0.266,0.88-0.555,1.369-0.863c0.961-0.632,2.001-1.396,3.091-2.26c1.074-0.888,2.178-1.904,3.251-3.057
				c1.101-1.125,2.112-2.444,3.116-3.821c0.993-1.391,1.88-2.921,2.729-4.503c0.833-1.592,1.565-3.276,2.218-4.993
				c0.679-1.709,1.198-3.486,1.7-5.239c0.492-1.758,0.868-3.525,1.223-5.242c0.66-3.445,1.087-6.725,1.375-9.564
				c0.119-1.427,0.228-2.735,0.325-3.894c0.073-1.169,0.136-2.187,0.189-3.026C295.234,239.579,295.291,238.61,295.291,238.61z"/>
		</g>
		<g>
			<path d="M97.5,292.205c0,0,0.549,0.192,1.461,0.594c0.913,0.405,2.198,0.994,3.682,1.745c1.494,0.742,3.196,1.648,4.998,2.58
				c0.456,0.223,0.909,0.463,1.368,0.707c0.462,0.227,0.929,0.458,1.401,0.69c0.464,0.246,0.944,0.46,1.42,0.674
				c0.477,0.21,0.947,0.461,1.433,0.642l1.437,0.597c0.483,0.172,0.963,0.343,1.44,0.512c0.962,0.293,1.905,0.621,2.844,0.804
				c0.932,0.25,1.855,0.355,2.739,0.515c0.887,0.066,1.741,0.213,2.541,0.21c0.404,0.022,0.791,0.042,1.159,0.062
				c0.372-0.001,0.726-0.002,1.058-0.003c0.668-0.006,1.267,0.013,1.754-0.025c0.981-0.041,1.572-0.023,1.572-0.023
				s-0.479,0.314-1.37,0.793c-0.442,0.252-0.997,0.516-1.659,0.757c-0.332,0.129-0.685,0.266-1.057,0.411
				c-0.386,0.106-0.791,0.218-1.215,0.334c-0.85,0.257-1.806,0.353-2.825,0.496c-1.018,0.042-2.115,0.115-3.233-0.02
				c-0.564-0.035-1.135-0.1-1.699-0.221c-0.564-0.114-1.156-0.189-1.713-0.369c-0.562-0.166-1.136-0.318-1.698-0.508l-1.648-0.645
				c-1.064-0.49-2.138-0.977-3.105-1.574c-0.997-0.558-1.919-1.18-2.795-1.8c-1.747-1.243-3.248-2.542-4.48-3.711
				c-1.22-1.192-2.185-2.227-2.822-2.994C97.842,292.676,97.5,292.205,97.5,292.205z"/>
		</g>
	</g>
</g>
<g id="dog">
	<g id="Layer_18">
		<path fill="#F9CC55" stroke="#000000" stroke-width="5" stroke-miterlimit="10" d="M281.802,293.575
			c0-12.257-2.135-32.061-15.469-36.061c-13.333-4-3.796,5.71-4.531,18.061c-0.469,7.876-58.198-6.211-67.667-4
			c-10.893,2.543-15.135,54.543,10,60c12.013,2.608,33.333,0,31.333,8s-32.667-2.667-32.667,6c0,5.568,7.705,8.106,15.865,8.858l0,0
			v14.352h34v-26.667C252.667,342.118,281.802,336.118,281.802,293.575z"/>
	</g>
	<g id="Layer_19">
		<path fill="#774100" stroke="#000000" stroke-width="5" stroke-miterlimit="10" d="M210,277.451
			c-0.793,4.177-14.422,13.953-20.333,13.953c-3.882,0-3.05-15.953,3.469-18.829C198.544,270.188,211.029,272.031,210,277.451z"/>
	</g>
	<g id="Layer_20">
		<path fill="none" stroke="#000000" stroke-width="5" stroke-linecap="round" stroke-miterlimit="10" d="M202.538,294.421
			c0,0,2.08,4.457,3.06,11.246c0.98,6.789,0.282,11.904,0.282,11.904"/>
		<path fill="none" stroke="#000000" stroke-width="5" stroke-linecap="round" stroke-miterlimit="10" d="M209.168,291.2
			c0,0,2.892,0.583,7.088,6.009c3.796,4.908,3.744,11.572,3.744,11.572"/>
		<path fill="none" stroke="#000000" stroke-width="5" stroke-linecap="round" stroke-miterlimit="10" d="M238.745,290.222
			c0,0,2.758,0.311,6.378,5.108c3.274,4.339,2.667,10.666,2.667,10.666"/>
	</g>
</g>
<g id="hair_band">
	<g id="Layer_4">
		<path fill="#FFFFFF" stroke="#000000" stroke-width="5" stroke-miterlimit="10" d="M74.587,187.118
			c6.349,1.667,5.056-76.905,94.203-76.905s87.543,74.444,93.892,76.905c6.349,2.46,4.047-98.333-94.703-98.333
			C75.381,88.784,68.238,185.451,74.587,187.118z"/>
	</g>
	<g id="Layer_6">
		<path fill="#FFFFFF" stroke="#000000" stroke-width="5" stroke-miterlimit="10" d="M261.667,50.784c0,0-54-8-68.667,1.333
			s-21.889,44.96-21.889,44.96s36.556,12.024,55.889,5.199S261.667,50.784,261.667,50.784z"/>
		<path fill="#FFFFFF" stroke="#000000" stroke-width="5" stroke-miterlimit="10" d="M74.444,50.784c0,0,54-8,68.667,1.333
			S165,97.078,165,97.078s-36.556,12.024-55.889,5.199S74.444,50.784,74.444,50.784z"/>
	</g>
	<g id="Layer_5">
		<path fill="#FFFFFF" stroke="#000000" stroke-width="5" stroke-miterlimit="10" d="M184.905,98.845c0,1.895-1.343,3.432-3,3.432
			h-27.851c-1.657,0-3-1.537-3-3.432V87.55c0-1.895,1.343-3.432,3-3.432h27.851c1.657,0,3,1.537,3,3.432V98.845z"/>
	</g>
</g>
<g id="face">
	<path fill="#FD8570" d="M182.609,274.877c0,2.722-6.27,3.928-14.005,3.928s-14.005-1.206-14.005-3.928s6.27-5.928,14.005-5.928
		S182.609,272.155,182.609,274.877z"/>
	<path fill="none" stroke="#000000" stroke-width="5" stroke-linecap="round" stroke-miterlimit="10" d="M110.5,220.954
		c0,0,7.442-5.6,18-5.6s18,5.6,18,5.6"/>
	<path fill="none" stroke="#000000" stroke-width="5" stroke-linecap="round" stroke-miterlimit="10" d="M224.33,220.954
		c0,0-7.442-5.6-18-5.6s-18,5.6-18,5.6"/>
	<path fill="none" stroke="#000000" stroke-width="3" stroke-linecap="round" stroke-miterlimit="10" d="M196.566,263.761
		c1.894,5.21-12.424,14.239-27.75,14.239s-27.75-8.695-27.75-14.239c0-2.932,12.424-1.524,27.75-1.524
		S195.5,260.829,196.566,263.761z"/>
</g>
<g id="glasses">
	<g id="Layer_8">
		<path fill="none" stroke="#000000" stroke-width="3" stroke-miterlimit="10" d="M156.845,217.362
			c0,7.403-5.345,19.256-12.345,24.006c-4.179,2.836-12.44,4-20.899,4c-10.769,0-17.539-0.123-23.851-5
			c-5.5-4.25-10.251-19.619-9.004-25.314c2.504-11.436,13.591-15.941,32.921-15.941S156.845,204.198,156.845,217.362z"/>
		<path fill="none" stroke="#000000" stroke-width="3" stroke-miterlimit="10" d="M178.832,217.362
			c0,7.403,5.345,19.256,12.345,24.006c4.179,2.836,12.44,4,20.899,4c10.769,0,17.539-0.123,23.851-5
			c5.5-4.25,10.251-19.619,9.004-25.314c-2.504-11.436-13.591-15.941-32.921-15.941S178.832,204.198,178.832,217.362z"/>
	</g>
	<g id="Layer_9">
		<path d="M89.75,220.118c-3.333,1.167-8.489-4.518-9.648-7.25c-1.152-2.717-0.16-9.559,1.153-10.417
			c5.994-3.916,22.994-5.833,37.494-5.833s24.333-0.061,34.75,5.495c4.774,2.547,5.25,12.755,5.25,12.755s-3.75-4.75-8.75-8.25
			s-19.75-6.5-29.25-7s-20.583,3.083-24.583,7.083S92,216.118,89.75,220.118z"/>
		<ellipse fill="#FFFFFF" cx="83.917" cy="207.534" rx="1.083" ry="1.917"/>
		<path d="M245.928,220.118c3.333,1.167,8.489-4.518,9.648-7.25c1.152-2.717,0.16-9.559-1.153-10.417
			c-5.994-3.916-22.994-5.833-37.494-5.833s-24.333-0.061-34.75,5.495c-4.774,2.547-5.25,12.755-5.25,12.755s3.75-4.75,8.75-8.25
			s19.75-6.5,29.25-7s20.583,3.083,24.583,7.083S243.678,216.118,245.928,220.118z"/>
		<ellipse fill="#FFFFFF" cx="251.761" cy="207.534" rx="1.083" ry="1.917"/>
	</g>
	<g id="Layer_10">
		<path d="M153.599,204.658h28.01l-1.768,10.706h-3.535c0,0,0.955-3.502-8.311-3.68c-8.685-0.167-7.733,3.68-7.733,3.68h-3.797
			L153.599,204.658z"/>
	</g>
</g>
</svg>
